<svg width="210" height="166" viewBox="0 0 210 166" xmlns="http://www.w3.org/2000/svg"><path d="M48.19 136.935c-3.954 1.597-29.718 5.337-33.672-7.043-2.119-6.625.547-13.35 2.626-19.88l.005-.015c.746-2.348 1.189-4.183 1.238-5.148.274-5.262-2.581-10.366-4.963-12.454-.075-.065-.155-.135-.234-.2-.602-.482-.2-1.457.567-1.387 7.774.726 17.32 4.158 20.716 12.435.402.981.681 2.377.76 4.073.359 7.277-1.387 16.07-.904 19.025.591 3.636 3.302 7.107 9.057 6.77 5.76-.34 8.759 2.227 4.805 3.824" style="fill:#ff8d29;fill-opacity:1;fill-rule:nonzero;stroke:none;stroke-width:.0352778"/><path d="M35.234 107.316a9.713 9.713 0 0 0-3.502-4.228c-.631-.423-1.447-.77-2.129-.437-.462.228-.736.73-.82 1.238-.08.507-.095.89-.015 1.398a7.208 7.208 0 0 0-3.785-3.98c-.493-.213-1.02-.378-1.557-.362-.537.014-1.09.228-1.423.651-.333.418-.417.985-.452 1.522-.125 1.77.084 3.497.621 5.178-.328-.736-1.203-1.194-2.029-1.134-.93.064-1.76.681-2.293 1.452-.268.393-.492.9-.701 1.383.746-2.348 1.189-4.183 1.238-5.148.02-.393.025-.786.01-1.174 0-.144-.005-.288-.02-.432v-.04c-.308-4.656-2.82-8.938-4.953-10.808-.08-.07-.155-.14-.234-.2-.602-.482-.2-1.457.567-1.387 7.774.726 18.517 4.854 20.716 12.435.293 1.02.681 2.377.76 4.073" style="fill:#ffdaba;fill-opacity:1;fill-rule:nonzero;stroke:none;stroke-width:.0352778"/><path d="M19 103.21c.014.155.02.31.02.465.014.36.01.774-.012 1.205-.026.51-.152 1.238-.368 2.142.46-.278.96-.446 1.46-.481a2.71 2.71 0 0 1 1.026.125 14.41 14.41 0 0 1-.196-3.592c.04-.606.14-1.305.587-1.865.42-.532 1.127-.864 1.891-.886.557-.011 1.135.116 1.822.415a7.772 7.772 0 0 1 3.1 2.477c.207-.503.557-.904.997-1.122.538-.263 1.45-.393 2.751.479a10.163 10.163 0 0 1 2.075 1.849c-.095-.37-.191-.705-.278-1.007-2.21-7.618-13.277-11.342-20.176-11.987-.094-.008-.142.052-.164.105-.043.108.022.16.044.178.06.046.133.109.206.175l.049.042c2.331 2.043 4.854 6.558 5.164 11.234zm-1.851 7.408a.622.622 0 0 1-.593-.81c.723-2.274 1.164-4.093 1.21-4.991.02-.394.023-.77.01-1.118 0-.147-.004-.27-.017-.393l-.003-.063c-.287-4.338-2.603-8.506-4.742-10.381l-.054-.048c-.05-.043-.096-.085-.145-.122a1.394 1.394 0 0 1-.434-1.625 1.413 1.413 0 0 1 1.431-.879c7.241.677 18.875 4.665 21.258 12.881.296 1.03.702 2.439.785 4.218a.622.622 0 0 1-1.193.274 9.13 9.13 0 0 0-3.275-3.955c-.367-.246-1.049-.623-1.51-.397-.235.116-.42.416-.48.782-.075.475-.08.79-.015 1.2a.621.621 0 0 1-1.195.318 6.546 6.546 0 0 0-3.454-3.632c-.513-.222-.924-.32-1.29-.31-.394.01-.758.17-.952.414-.234.294-.293.76-.32 1.177a13.15 13.15 0 0 0 .594 4.948.622.622 0 0 1-1.16.443c-.211-.472-.828-.806-1.417-.767-.664.046-1.346.49-1.826 1.185-.226.331-.425.774-.643 1.277a.621.621 0 0 1-.57.374" style="fill:#f5b782;fill-opacity:1;fill-rule:nonzero;stroke:none;stroke-width:.0352778"/><path d="m17.734 110.208-.285.846c-1.292 3.804-4.316 12.712-2.341 18.641.875 2.632 2.873 4.684 5.938 6.1 8.955 4.139 24.198 1.66 26.911.563 1.053-.424 1.463-.886 1.403-1.156-.137-.607-2.08-1.698-5.938-1.471-6.216.38-9.094-3.526-9.707-7.29-.235-1.438.01-3.992.321-7.225.342-3.557.768-7.984.577-11.87-.077-1.635-.459-2.962-.738-3.932-2.21-7.618-13.277-11.342-20.176-11.987-.094-.008-.142.052-.164.105-.043.108.022.16.044.178.06.046.133.109.206.175l.049.042c2.357 2.056 4.87 6.33 5.164 11.238l.001.045c.015.155.02.31.02.465.015.36.011.774-.01 1.205-.053 1.015-.503 2.9-1.267 5.305zm16.499 29.152c-4.722 0-9.75-.606-13.709-2.436-3.39-1.566-5.609-3.866-6.596-6.836-2.108-6.326.898-15.179 2.343-19.433l.283-.84.002-.007c.723-2.274 1.164-4.093 1.21-4.992.02-.393.023-.77.01-1.117 0-.147-.004-.27-.017-.393l-.003-.064c-.271-4.527-2.648-8.553-4.741-10.379l-.055-.05c-.05-.042-.096-.084-.145-.122a1.394 1.394 0 0 1-.434-1.624 1.413 1.413 0 0 1 1.431-.88c7.241.677 18.875 4.666 21.258 12.882.296 1.03.702 2.438.785 4.217.196 3.975-.235 8.452-.58 12.05-.29 3.018-.542 5.625-.333 6.905.255 1.566 1.61 6.64 8.407 6.248 3.823-.223 6.856.803 7.224 2.44.132.587.028 1.703-2.15 2.583-1.693.683-7.646 1.847-14.19 1.847" style="fill:#b3470e;fill-opacity:1;fill-rule:nonzero;stroke:none;stroke-width:.0352778"/><path d="M71.876 134.21c-.318 2.532-4.235 28.704-4.235 28.704l-5.927.739-5.081-24.59 15.243-4.854" style="fill:#ff8d29;fill-opacity:1;fill-rule:nonzero;stroke:none;stroke-width:.0352778"/><path d="m57.355 139.486 4.851 23.478 4.89-.609c.485-3.24 3.337-22.326 4.03-27.255zm4.358 24.789a.622.622 0 0 1-.609-.497l-5.08-24.59a.621.621 0 0 1 .42-.717l15.243-4.855a.622.622 0 0 1 .806.67c-.315 2.511-4.077 27.651-4.237 28.72a.622.622 0 0 1-.538.525l-5.928.739-.077.005" style="fill:#b3470e;fill-opacity:1;fill-rule:nonzero;stroke:none;stroke-width:.0352778"/><path d="M61.714 163.653c-.725-3.508 12.067-6.332 15.137-4.538 3.07 1.794 1.482 3.905 1.164 4.538-.317.633-16.301 0-16.301 0" style="fill:#85380d;fill-opacity:1;fill-rule:nonzero;stroke:none;stroke-width:.0352778"/><path d="M77.698 163.136zm-15.331-.08c6.665.253 13.912.37 15.203.113l.014-.025c.457-.81 1.22-2.167-1.047-3.493-1.992-1.163-9.931-.034-13.164 2.289-.402.29-.848.687-1.006 1.116zm10.747 1.511c-2.474 0-6.099-.082-11.425-.293a.622.622 0 0 1-.585-.496c-.143-.69.01-1.746 1.544-2.848 3.498-2.513 11.91-3.875 14.517-2.352 3.324 1.943 1.954 4.377 1.503 5.176-.038.07-.072.128-.097.177-.141.283-.32.636-5.457.636" style="fill:#612404;fill-opacity:1;fill-rule:nonzero;stroke:none;stroke-width:.0352778"/><path d="M32.567 134.21c.318 2.54 4.235 28.792 4.235 28.792l5.928.74 5.08-24.664-15.243-4.869" style="fill:#ff8d29;fill-opacity:1;fill-rule:nonzero;stroke:none;stroke-width:.0352778"/><path d="m37.347 162.443 4.89.611 4.852-23.554-13.773-4.4c.693 4.942 3.547 24.097 4.03 27.343zm5.383 1.921-.077-.005-5.928-.74a.622.622 0 0 1-.539-.526c-.16-1.072-3.92-26.289-4.236-28.807a.62.62 0 0 1 .806-.67L48 138.487a.622.622 0 0 1 .42.718l-5.081 24.664a.622.622 0 0 1-.609.496" style="fill:#b3470e;fill-opacity:1;fill-rule:nonzero;stroke:none;stroke-width:.0352778"/><path d="M42.73 163.743c.724-3.519-12.068-6.352-15.138-4.552-3.07 1.8-1.482 3.917-1.164 4.552.317.635 16.302 0 16.302 0" style="fill:#85380d;fill-opacity:1;fill-rule:nonzero;stroke:none;stroke-width:.0352778"/><path d="M26.873 163.26c1.292.258 8.54.14 15.204-.115-.158-.434-.61-.838-1.02-1.13-3.236-2.32-11.167-3.45-13.15-2.288-2.27 1.33-1.505 2.693-1.048 3.507zm15.857.483h.006zm-11.403.915c-5.138 0-5.314-.354-5.455-.637-.025-.05-.059-.11-.097-.178-.45-.801-1.82-3.24 1.503-5.189 2.598-1.522 11.002-.161 14.504 2.35 1.546 1.108 1.7 2.169 1.557 2.864a.622.622 0 0 1-.585.496c-5.326.212-8.953.294-11.427.294" style="fill:#612404;fill-opacity:1;fill-rule:nonzero;stroke:none;stroke-width:.0352778"/><path d="M62.45 88.426H39.953c-4.156 8.585-13.021 32.108-13.021 40.006 0 10.988 11.226 16.997 24.27 16.997 13.044 0 24.27-6.009 24.27-16.997 0-7.898-8.866-31.42-13.022-40.006" style="fill:#ff8d29;fill-opacity:1;fill-rule:nonzero;stroke:none;stroke-width:.0352778"/><path d="M75.471 128.43c0 10.988-11.225 17.002-24.266 17.002-.66 0-1.313-.013-1.96-.05 12.19-.572 22.308-6.518 22.308-16.953 0-7.898-8.862-31.418-13.023-40h3.918c4.161 8.582 13.023 32.102 13.023 40" style="fill:#ffa04d;fill-opacity:1;fill-rule:nonzero;stroke:none;stroke-width:.0352778"/><path d="M62.347 100.732c-1.308-5.054-4.24-13.677-5.98-17.272h-10.33c-1.27 2.623-3.153 7.56-4.845 12.842-.9 2.81-2.528 5.382-2.705 8.326-.055.92.068 2.029.886 2.453.895.465 1.936-.218 2.71-.864a15.613 15.613 0 0 0 .102 7.057c.273 1.102.78 2.294 1.836 2.708.808.318 1.75.076 2.47-.41.72-.486 1.26-1.188 1.788-1.877a9.342 9.342 0 0 0 .984 5.875c.513.955 1.407 1.914 2.483 1.777.796-.1 1.387-.776 1.83-1.445 1.522-2.301 1.808-4.77 2.245-7.416.198.777.41 1.582.924 2.197s1.424.979 2.141.62c.512-.258.805-.806 1.007-1.342a8.082 8.082 0 0 0 .315-4.624c.049.595.693 1.024 1.288.964.594-.06 1.096-.508 1.367-1.041.27-.533.343-1.142.377-1.739.121-2.111-.363-4.742-.893-6.789" style="fill:#ffdaba;fill-opacity:1;fill-rule:nonzero;stroke:none;stroke-width:.0352778"/><path d="M48.28 113.073a.62.62 0 0 1 .613.723 8.687 8.687 0 0 0 .918 5.48c.412.765 1.113 1.551 1.857 1.454.451-.057.906-.44 1.39-1.171 1.312-1.984 1.663-4.163 2.035-6.47l.115-.705a.622.622 0 0 1 .586-.52c.297-.028.557.183.63.468.171.672.365 1.434.8 1.952.333.4.941.682 1.383.463.273-.138.497-.457.704-1.006.48-1.27.6-2.69.342-4.025a1.532 1.532 0 0 1-.065-.328.621.621 0 0 1 1.226-.19c.014.06.028.122.04.183.033.07.087.123.124.153.128.107.3.164.456.148.33-.033.674-.31.874-.703.224-.442.282-.98.311-1.493.132-2.29-.491-5.117-.875-6.598-1.194-4.616-3.978-12.947-5.77-16.806h-9.545c-1.29 2.753-3.089 7.554-4.645 12.41-.314.98-.715 1.936-1.103 2.858-.752 1.789-1.462 3.478-1.573 5.316-.034.57-.008 1.573.551 1.863.448.231 1.11-.026 2.026-.79a.623.623 0 0 1 1.006.61 15.003 15.003 0 0 0 .098 6.775c.311 1.254.802 2.022 1.459 2.28.643.252 1.4-.013 1.894-.347.645-.436 1.153-1.099 1.644-1.74a.622.622 0 0 1 .494-.244m3.266 8.91c-1.066 0-2.108-.773-2.83-2.119a9.937 9.937 0 0 1-1.171-4.352 5.413 5.413 0 0 1-.707.576c-.978.66-2.117.838-3.045.473-1.068-.42-1.792-1.445-2.212-3.137a16.274 16.274 0 0 1-.353-5.882c-.633.306-1.401.476-2.141.092-.621-.322-1.337-1.112-1.22-3.042.123-2.05.908-3.918 1.667-5.724.378-.898.768-1.826 1.066-2.755 1.64-5.12 3.554-10.194 4.877-12.924a.621.621 0 0 1 .56-.35h10.33a.62.62 0 0 1 .56.35c1.812 3.743 4.776 12.573 6.022 17.387.401 1.551 1.053 4.52.912 6.981-.035.617-.115 1.336-.443 1.984-.394.774-1.106 1.302-1.86 1.379a1.818 1.818 0 0 1-.532-.026 8.731 8.731 0 0 1-.551 3.287c-.204.54-.562 1.302-1.31 1.677-1.04.522-2.244.005-2.897-.775a3.437 3.437 0 0 1-.203-.27c-.343 1.884-.817 3.69-1.97 5.432-.443.67-1.161 1.578-2.27 1.72a2.25 2.25 0 0 1-.279.017" style="fill:#f5b782;fill-opacity:1;fill-rule:nonzero;stroke:none;stroke-width:.0352778"/><path d="M51.205 98.852c-1.696 0-5.267-.835-9.49-2.148l.07-.213c.909-2.839 1.902-5.66 2.827-8.063h13.13a157.18 157.18 0 0 1 2.825 8.353c-4.124 1.269-7.622 2.07-9.362 2.07" style="fill:#f7a26e;fill-opacity:1;fill-rule:nonzero;stroke:none;stroke-width:.0352778"/><path d="M65.42 95.17c-.167-.401-.33-.796-.492-1.181l-.045-.106c.177.419.357.848.538 1.287h-.002" style="fill:#f8b490;fill-opacity:1;fill-rule:nonzero;stroke:none;stroke-width:.0352778"/><path d="M61.753 96.408c-.263-.859-.547-1.751-.842-2.653.346.822.703 1.685 1.066 2.581l-.224.072m3.175-2.42a15.565 15.565 0 0 1-.045-.105l.044.106" style="fill:#f77b25;fill-opacity:1;fill-rule:nonzero;stroke:none;stroke-width:.0352778"/><path d="M61.977 96.336c-.363-.896-.72-1.76-1.066-2.581a156.71 156.71 0 0 0-1.844-5.327h3.381a124.893 124.893 0 0 1 2.48 5.56c.161.386.325.78.491 1.183a126.72 126.72 0 0 1-3.442 1.165" style="fill:#f78537;fill-opacity:1;fill-rule:nonzero;stroke:none;stroke-width:.0352778"/><path d="M40.53 96.328c-1.147-.37-2.33-.77-3.53-1.195 1.101-2.668 2.121-4.988 2.954-6.705h3.327a155.446 155.446 0 0 0-2.752 7.9" style="fill:#f77b25;fill-opacity:1;fill-rule:nonzero;stroke:none;stroke-width:.0352778"/><path d="M60.567 96.78a157.449 157.449 0 0 0-2.824-8.352h1.324a156.71 156.71 0 0 1 2.686 7.98c-.4.128-.795.252-1.186.373m-18.852-.077c-.39-.12-.786-.246-1.186-.375l.071-.216c.86-2.685 1.795-5.357 2.681-7.685h1.331a152.412 152.412 0 0 0-2.897 8.276" style="fill:#f29052;fill-opacity:1;fill-rule:nonzero;stroke:none;stroke-width:.0352778"/><path d="M40.344 89.048c-4.48 9.388-12.79 31.987-12.79 39.383 0 11.313 11.877 16.377 23.647 16.377 11.771 0 23.649-5.064 23.649-16.377 0-7.396-8.311-29.995-12.791-39.383zm10.857 57.004c-14.655 0-24.891-7.246-24.891-17.62 0-8.245 9.087-32.022 13.084-40.277a.621.621 0 0 1 .56-.35H62.45c.238 0 .456.135.56.35 3.996 8.255 13.084 32.032 13.084 40.276 0 10.375-10.236 17.62-24.893 17.62" style="fill:#b3470e;fill-opacity:1;fill-rule:nonzero;stroke:none;stroke-width:.0352778"/><path d="M76.575 39.975c2.148-2.172 4.84-6.809 4.714-10.644-.126-3.835-5.036-27.597-6.718-28.085C72.89.757 58.873 12.437 54.58 26.076c-2.334 7.415 21.996 13.899 21.996 13.899" style="fill:#ff8d29;fill-opacity:1;fill-rule:nonzero;stroke:none;stroke-width:.0352778"/><path d="M74.292 1.79zm.054.057c-1.9.248-15.038 11.276-19.174 24.415-.247.786-.141 1.58.324 2.425 2.95 5.366 18.348 9.877 20.886 10.59 1.928-2.09 4.402-6.342 4.285-9.926-.144-4.387-4.847-25.77-6.321-27.504zm2.23 38.75a.617.617 0 0 1-.16-.021c-.757-.201-18.556-5.007-22.01-11.29-.629-1.143-.77-2.286-.42-3.397C58.194 12.521 72.4-.059 74.745.65c.487.14 1.502.436 4.375 13.248 1.5 6.691 2.726 13.462 2.79 15.414.142 4.34-2.925 9.113-4.893 11.101a.622.622 0 0 1-.442.185" style="fill:#b3470e;fill-opacity:1;fill-rule:nonzero;stroke:none;stroke-width:.0352778"/><path d="M78.08 24.075c1.058 5.328-.37 11.235-3.485 14.758-2.613-1.074-5.203-2.49-7.675-4.188a43.888 43.888 0 0 1-7.7-6.733c2.633-8.41 7.352-15.625 13.319-20.38.15-.12.3-.242.453-.356.553 3.353.207 6.742-1.08 9.652.936-1.161 2.44-1.86 3.765-1.854.728 3.375.566 7.244-.614 10.302.818-.745 2.013-1.028 3.017-1.2" style="fill:#ffdaba;fill-opacity:1;fill-rule:nonzero;stroke:none;stroke-width:.0352778"/><path d="M59.922 27.758a43.226 43.226 0 0 0 7.35 6.375c2.317 1.59 4.718 2.919 7.144 3.95 2.694-3.296 3.932-8.502 3.163-13.278-.769.168-1.547.43-2.097.93a.622.622 0 0 1-.999-.683c1.04-2.697 1.292-6.18.692-9.42-1.034.147-2.103.747-2.778 1.586a.622.622 0 0 1-1.053-.641c1.092-2.471 1.494-5.297 1.18-8.232-5.598 4.613-10.053 11.475-12.602 19.413zm14.673 11.697a.617.617 0 0 1-.236-.046c-2.648-1.09-5.27-2.52-7.791-4.251a44.449 44.449 0 0 1-7.809-6.829.622.622 0 0 1-.132-.603c2.664-8.508 7.466-15.853 13.524-20.68.153-.123.31-.249.467-.367a.62.62 0 0 1 .987.395c.454 2.747.325 5.438-.368 7.9.772-.4 1.629-.624 2.443-.622a.622.622 0 0 1 .605.49c.652 3.021.59 6.301-.137 9.085.603-.229 1.236-.363 1.827-.464a.62.62 0 0 1 .715.491c1.085 5.463-.373 11.608-3.629 15.291a.622.622 0 0 1-.466.21" style="fill:#f5b782;fill-opacity:1;fill-rule:nonzero;stroke:none;stroke-width:.0352778"/><path d="M17.147 48.866c-2.69-1.448-6.62-5.095-7.622-8.799-1.002-3.703-3.261-27.862-1.796-28.821 1.465-.96 18.287 6.107 26.384 17.892 4.402 6.407-16.966 19.728-16.966 19.728" style="fill:#ff8d29;fill-opacity:1;fill-rule:nonzero;stroke:none;stroke-width:.0352778"/><path d="M8.113 11.774c-.884 2.2.87 23.906 2.013 28.131.936 3.46 4.546 6.802 7.001 8.236 2.22-1.424 15.624-10.247 16.874-16.238.197-.945.066-1.734-.4-2.413-7.748-11.275-23.382-17.978-25.488-17.716Zm9.034 37.714a.63.63 0 0 1-.295-.074c-2.463-1.327-6.793-4.993-7.927-9.184-.51-1.886-1.32-8.718-1.843-15.555-1.003-13.092-.119-13.672.306-13.95 2.05-1.335 19.3 6.509 27.238 18.06.66.96.859 2.095.592 3.372-1.464 7.018-17.078 16.822-17.742 17.236a.622.622 0 0 1-.329.095" style="fill:#b3470e;fill-opacity:1;fill-rule:nonzero;stroke:none;stroke-width:.0352778"/><path d="M11.055 34.103c.548 5.404 3.642 10.634 7.652 13.092 2.184-1.793 4.246-3.905 6.113-6.252a43.876 43.876 0 0 0 5.392-8.691c-4.98-7.272-11.603-12.79-18.7-15.59-.18-.072-.358-.143-.537-.208.452 3.368 1.775 6.507 3.857 8.914-1.234-.837-2.878-1.065-4.143-.671.292 3.44 1.58 7.092 3.602 9.67-1-.472-2.225-.393-3.236-.264" style="fill:#ffdaba;fill-opacity:1;fill-rule:nonzero;stroke:none;stroke-width:.0352778"/><path d="M11.747 34.654c.664 4.792 3.37 9.408 6.912 11.772a41.133 41.133 0 0 0 5.675-5.87 43.173 43.173 0 0 0 5.162-8.246c-4.76-6.846-11.03-12.104-17.731-14.875.558 2.898 1.77 5.482 3.537 7.526a.622.622 0 0 1-.819.922c-.892-.606-2.091-.867-3.121-.705.375 3.274 1.634 6.531 3.418 8.806a.622.622 0 0 1-.755.946c-.67-.317-1.512-.337-2.278-.276zm6.96 13.163a.62.62 0 0 1-.325-.092c-4.191-2.569-7.384-8.018-7.946-13.56a.623.623 0 0 1 .54-.68c.568-.071 1.222-.13 1.885-.087-1.511-2.448-2.53-5.568-2.792-8.648a.622.622 0 0 1 .435-.647c.784-.243 1.664-.276 2.519-.12-1.383-2.152-2.294-4.687-2.665-7.446a.623.623 0 0 1 .827-.668c.17.061.341.129.512.198 7.249 2.86 13.991 8.477 19.028 15.833a.623.623 0 0 1 .05.615 44.396 44.396 0 0 1-5.468 8.816c-1.903 2.393-3.991 4.527-6.206 6.345a.619.619 0 0 1-.394.141" style="fill:#f5b782;fill-opacity:1;fill-rule:nonzero;stroke:none;stroke-width:.0352778"/><path d="M100.709 63.444c-.402-1.113-3.167-1.132-9.345-2.128 2.672-.5 6.16-4.138 3.684-4.946-2.364-.77-7.432-4.135-9.777-7.827-6.238-10.935-14.558-21.443-17.916-23.42-8.268-4.87-39.05-1.384-45.834 6.856-2.435 2.955-7.203 15.034-10.036 27.062-.952 4.352-5.078 9.416-7.203 10.909-2.131 1.496 2.267 3.955 4.97 3.651-5.617 2.76-8.255 3.587-8.313 4.77-.128 2.611 6.873 5.21 12.205 6.955 2.253 1.12 5.836 2.18 9.994 3.106 11.163 2.493 26.413 4.054 30.768 3.402 4.539-.679 18.562-6.6 28.434-12.234 3.573-2.034 6.598-4.03 8.444-5.729 4.624-3.24 10.83-7.915 9.925-10.427" style="fill:#ff8d29;fill-opacity:1;fill-rule:nonzero;stroke:none;stroke-width:.0352778"/><path d="M82.385 79.593C72.513 85.227 58.49 91.148 53.95 91.827c-4.354.652-19.604-.909-30.767-3.401 4.872-12.067 18.28-22.11 26.761-23.378 8.488-1.27 24.247 4.409 32.432 14.522l.01.023" style="fill:#ffdaba;fill-opacity:1;fill-rule:nonzero;stroke:none;stroke-width:.0352778"/><path d="M24.044 87.978c11.394 2.468 25.765 3.843 29.815 3.234 4.128-.618 17.493-6.128 27.58-11.797-8.003-9.405-23.02-15.006-31.403-13.752-8.369 1.252-21.078 10.99-25.992 22.315zM51.195 92.6c-6.477 0-19.09-1.544-28.148-3.567a.62.62 0 0 1-.441-.839c4.842-11.99 18.378-22.434 27.246-23.76 8.874-1.325 24.874 4.696 33.007 14.746a.619.619 0 0 1 .09.148c.122.29.018.65-.255.806-9.617 5.488-23.808 11.585-28.651 12.31-.712.106-1.681.156-2.848.156" style="fill:#f5b782;fill-opacity:1;fill-rule:nonzero;stroke:none;stroke-width:.0352778"/><path d="M91.132 60.351c-2.36-.772-7.43-4.139-9.774-7.832C75.119 41.587 66.8 31.08 63.442 29.103c-7.4-4.357-32.82-2.026-42.948 4.42.375-.647.718-1.17 1.027-1.544 6.785-8.24 37.566-11.725 45.834-6.857 3.358 1.976 11.677 12.484 17.917 23.422 2.344 3.693 7.412 7.053 9.779 7.825 2.293.745-.538 3.929-3.088 4.788-.066-.355-.322-.637-.831-.806m5.023 9.492c.611-.915.883-1.748.637-2.422-.398-1.11-3.162-1.13-9.341-2.124 2-.375 4.449-2.501 4.525-3.884 5.75.9 8.342.953 8.73 2.033.57 1.575-1.665 4.003-4.551 6.397" style="fill:#ffa04d;fill-opacity:1;fill-rule:nonzero;stroke:none;stroke-width:.0352778"/><path d="M9.252 72.979a.622.622 0 0 1 .274 1.18c-1.46.717-2.693 1.292-3.782 1.8-2.324 1.084-4.16 1.94-4.184 2.442-.054 1.113 1.945 3.116 11.778 6.334l.083.035c2.05 1.02 5.457 2.076 9.852 3.055 11.501 2.568 26.406 4.016 30.54 3.394 4.217-.63 18.066-6.366 28.22-12.159 3.762-2.141 6.642-4.094 8.33-5.647l.064-.051c6.99-4.9 10.253-8.165 9.697-9.707-.17-.472-2.177-.754-4.718-1.11a193.528 193.528 0 0 1-4.14-.614.622.622 0 0 1-.016-1.226c1.786-.334 3.954-2.285 4.02-3.306.009-.118.02-.296-.415-.437-2.62-.854-7.732-4.343-10.11-8.086C78.45 37.84 70.21 27.526 67.04 25.658c-7.95-4.68-38.509-1.213-45.038 6.717-2.377 2.885-7.12 14.963-9.91 26.808-.953 4.354-5.05 9.589-7.452 11.276-.374.262-.311.428-.27.539.363.956 3.007 2.19 4.813 1.985zM51.15 92.606c-6.477 0-19.09-1.544-28.148-3.567-4.527-1.009-7.923-2.064-10.094-3.135C3.968 82.974.202 80.71.318 78.34c.061-1.25 1.478-1.912 4.902-3.508.55-.257 1.139-.532 1.774-.832-1.687-.437-3.35-1.407-3.788-2.562-.283-.75-.022-1.478.718-1.997 1.865-1.31 6.009-6.214 6.953-10.534 2.915-12.372 7.695-24.326 10.164-27.323 6.917-8.402 38.101-12.02 46.63-6.997 3.73 2.196 12.207 13.247 18.14 23.648 2.18 3.432 7.045 6.767 9.43 7.544.86.28 1.323.9 1.27 1.7-.08 1.233-1.386 2.647-2.871 3.558.695.102 1.338.191 1.94.276 3.74.525 5.29.742 5.714 1.92.812 2.253-2.215 5.58-10.12 11.124-1.783 1.632-4.651 3.578-8.526 5.784-9.616 5.487-23.807 11.584-28.65 12.308-.712.107-1.681.157-2.848.157" style="fill:#b3470e;fill-opacity:1;fill-rule:nonzero;stroke:none;stroke-width:.0352778"/><path d="M39.483 64.168c.892 5.964-3.22 11.523-9.185 12.415-5.964.893-11.523-3.22-12.415-9.184-.892-5.964 3.22-11.523 9.184-12.415 5.965-.893 11.523 3.22 12.416 9.184" style="fill:#fff;fill-opacity:1;fill-rule:nonzero;stroke:none;stroke-width:.0352778"/><path d="M28.689 55.484c-.505 0-1.016.037-1.53.115-5.615.84-9.501 6.092-8.661 11.708.84 5.615 6.093 9.502 11.708 8.661 5.616-.84 9.502-6.093 8.662-11.708-.764-5.102-5.169-8.776-10.18-8.776zm-.013 21.842c-5.616 0-10.553-4.117-11.408-9.835-.942-6.294 3.413-12.181 9.707-13.123 6.297-.943 12.181 3.414 13.122 9.707.942 6.295-3.412 12.182-9.707 13.124-.575.086-1.149.127-1.714.127" style="fill:#000;fill-opacity:1;fill-rule:nonzero;stroke:none;stroke-width:.0352778"/><path d="M39.482 64.165a8.152 8.152 0 0 1-6.864 9.27 8.151 8.151 0 0 1-9.269-6.856 8.156 8.156 0 0 1 6.857-9.27 8.1 8.1 0 0 1 6.145 1.578c-1.527 2.385-2.128 4.588-1.331 5.17.697.517 2.245-.343 3.851-2.001.29.658.5 1.365.611 2.11" style="fill:#000;fill-opacity:1;fill-rule:nonzero;stroke:none;stroke-width:.0352778"/><path d="M59.696 61.143c.893 5.965 6.451 10.077 12.416 9.185 5.964-.892 10.076-6.451 9.184-12.416-.893-5.964-6.451-10.076-12.416-9.184-5.964.892-10.076 6.451-9.184 12.415" style="fill:#fff;fill-opacity:1;fill-rule:nonzero;stroke:none;stroke-width:.0352778"/><path d="M70.502 49.23c-.505 0-1.016.036-1.53.113-5.616.84-9.501 6.093-8.66 11.708.84 5.616 6.09 9.506 11.708 8.662 5.616-.84 9.5-6.093 8.66-11.709-.762-5.101-5.167-8.775-10.178-8.775zm-.013 21.84c-5.616.001-10.553-4.116-11.408-9.835-.942-6.294 3.413-12.18 9.707-13.122 6.293-.94 12.182 3.413 13.123 9.707.942 6.294-3.413 12.18-9.707 13.123-.576.086-1.15.128-1.715.128" style="fill:#000;fill-opacity:1;fill-rule:nonzero;stroke:none;stroke-width:.0352778"/><path d="M75.793 58.733a8.117 8.117 0 0 1-6.828 9.23 8.117 8.117 0 0 1-9.23-6.827 8.122 8.122 0 0 1 6.827-9.23 8.094 8.094 0 0 1 6.111 1.564c-1.519 2.382-2.11 4.574-1.317 5.155.687.515 2.229-.341 3.83-1.985.288.655.496 1.352.607 2.093" style="fill:#000;fill-opacity:1;fill-rule:nonzero;stroke:none;stroke-width:.0352778"/><path d="M41.252 49.167c.038 1.068-1.719 1.998-3.923 2.076-2.205.079-4.024-.724-4.062-1.792-.038-1.069 1.719-1.998 3.924-2.077 2.205-.078 4.023.724 4.06 1.793" style="fill:#d6530c;fill-opacity:1;fill-rule:nonzero;stroke:none;stroke-width:.0352778"/><path d="M37.48 47.991c-.088 0-.178.001-.267.004-2.058.074-3.343.898-3.324 1.434.009.254.334.552.847.78.673.296 1.612.444 2.57.413.96-.035 1.884-.252 2.534-.595.497-.263.8-.584.79-.838-.009-.254-.334-.553-.847-.78-.61-.27-1.437-.418-2.302-.418zm-.447 3.88c-1.043 0-2.026-.184-2.799-.525-.997-.44-1.561-1.105-1.588-1.873-.052-1.457 1.892-2.627 4.523-2.72 1.161-.047 2.265.142 3.116.519.997.44 1.561 1.105 1.588 1.872.028.769-.488 1.472-1.451 1.982-.822.436-1.913.698-3.071.739a8.514 8.514 0 0 1-.318.006" style="fill:#a33f0a;fill-opacity:1;fill-rule:nonzero;stroke:none;stroke-width:.0352778"/><path d="M60.515 46.285c.038 1.068-1.719 1.998-3.923 2.077-2.205.078-4.023-.725-4.062-1.793-.038-1.068 1.719-1.998 3.924-2.077 2.205-.078 4.023.725 4.06 1.793" style="fill:#d6530c;fill-opacity:1;fill-rule:nonzero;stroke:none;stroke-width:.0352778"/><path d="M56.743 45.11c-.089 0-.178 0-.267.003-2.058.074-3.343.898-3.324 1.434.009.254.334.553.847.779.673.297 1.613.448 2.57.414 2.058-.073 3.343-.898 3.324-1.433-.009-.254-.333-.553-.847-.78-.61-.269-1.437-.418-2.303-.418zm-.447 3.88c-1.042 0-2.026-.184-2.799-.526-.997-.44-1.561-1.105-1.588-1.873-.052-1.457 1.892-2.626 4.522-2.72 1.162-.047 2.266.143 3.117.519.997.44 1.561 1.105 1.588 1.873.052 1.457-1.892 2.626-4.522 2.72a8.48 8.48 0 0 1-.318.006" style="fill:#a33f0a;fill-opacity:1;fill-rule:nonzero;stroke:none;stroke-width:.0352778"/><path d="M55.588 68.706c.24 1.6-2.994 4.41-3.984 5.231a.603.603 0 0 1-.307.134.6.6 0 0 1-.333-.038c-1.193-.495-5.1-2.237-5.34-3.836-.07-.467.025-.884.288-1.231.642-.876 2.137-1.094 4.032-1.377l.75-.112c1.888-.289 3.382-.513 4.259.136.352.255.565.626.635 1.093" style="fill:#000;fill-opacity:1;fill-rule:nonzero;stroke:none;stroke-width:.0352778"/><path d="M56.45 81.696c-1.799 1.67-4.68 2.243-7.064 1.272-2.279-.923-4.072-3.36-4.213-5.925 4.257 1.309 9.112.501 12.717-2.114.747 2.41.42 5.063-1.44 6.767" style="fill:#6e0e1f;fill-opacity:1;fill-rule:nonzero;stroke:none;stroke-width:.0352778"/><path d="M45.914 77.887c.42 1.944 1.873 3.763 3.705 4.504 2.17.884 4.784.359 6.407-1.15l.004-.003c1.366-1.251 1.894-3.189 1.477-5.297-3.393 2.143-7.688 2.863-11.593 1.947zm5.945 6.177c-4.2 0-7.119-3.553-7.307-6.987a.622.622 0 0 1 .804-.628c4.063 1.248 8.726.473 12.17-2.023a.622.622 0 0 1 .958.32c.991 3.198.187 6.4-2.577 8.147a7.553 7.553 0 0 1-4.048 1.17" style="fill:#000;fill-opacity:1;fill-rule:nonzero;stroke:none;stroke-width:.0352778"/><path d="M55.575 82.367c-2.628 1.68-6.467 1.535-8.827-1.396 2.91-1.808 6.568-1.315 8.827 1.396" style="fill:#db1a47;fill-opacity:1;fill-rule:nonzero;stroke:none;stroke-width:.0352778"/><path d="M47.738 81.139a5.798 5.798 0 0 0 1.881 1.252c1.566.64 3.403.56 4.958-.18a6.099 6.099 0 0 0-3.018-1.583c-1.255-.246-2.612-.059-3.821.51zm4.12 2.925a7.173 7.173 0 0 1-2.707-.52c-1.096-.444-2.095-1.199-2.888-2.183a.623.623 0 0 1 .157-.918c1.623-1.01 3.583-1.387 5.377-1.036 1.632.318 3.143 1.227 4.256 2.562a.62.62 0 0 1-.143.922 7.562 7.562 0 0 1-4.051 1.173m-9.591-3.726a.622.622 0 0 1-.21-1.207 4.422 4.422 0 0 0 2.414-2.12 4.423 4.423 0 0 0 .318-3.198.622.622 0 0 1 1.196-.34 5.681 5.681 0 0 1-.407 4.106 5.683 5.683 0 0 1-3.1 2.722.62.62 0 0 1-.21.037m19.234-3.218h-.03a5.684 5.684 0 0 1-3.762-1.696 5.68 5.68 0 0 1-1.591-3.807.622.622 0 0 1 .61-.635c.347.007.627.266.634.61a4.422 4.422 0 0 0 1.238 2.964 4.426 4.426 0 0 0 2.93 1.321.622.622 0 0 1-.03 1.243" style="fill:#000;fill-opacity:1;fill-rule:nonzero;stroke:none;stroke-width:.0352778"/><path d="M47.456 118.989c.874-.187-2.015 6.481-2.602 5.435-8.969-6.287-12.578-13.575-13.992-18.027-2.143-6.748 2.396-13.65 7.069-13.483-.93 12.054 4.424 20.701 9.525 26.075" style="fill:#ff8d29;fill-opacity:1;fill-rule:nonzero;stroke:none;stroke-width:.0352778"/><path d="M37.264 93.563c-1.481.179-2.968 1.14-4.162 2.711-1.637 2.156-2.93 5.899-1.647 9.935 1.222 3.847 4.607 11.223 13.567 17.573.645-.776 1.826-3.503 1.963-4.386-4.857-5.124-10.424-13.73-9.721-25.833zm7.754 31.593a.79.79 0 0 1-.605-.282c-9.338-6.577-12.87-14.277-14.143-18.288-1.194-3.757-.488-7.996 1.842-11.064 1.616-2.127 3.74-3.318 5.84-3.23a.619.619 0 0 1 .599.67c-.92 11.92 4.472 20.402 9.22 25.455a.749.749 0 0 1 .422.473c.303.943-1.698 5.698-2.83 6.192a.869.869 0 0 1-.345.074" style="fill:#b3470e;fill-opacity:1;fill-rule:nonzero;stroke:none;stroke-width:.0352778"/><path d="M44.582 124.493c-.005 1.29.35 2.409.886 3.124.536.715 1.24 1.332 2.09 1.611.849.28 1.851.175 2.534-.4.684-.577.943-1.655.472-2.414.855.473 1.966.478 2.795-.04.83-.517 1.318-1.555 1.133-2.514-.185-.96-1.065-1.755-2.042-1.79.745-.198 1.295-.926 1.35-1.695a2.256 2.256 0 0 0-.981-1.983c-1.944-1.304-3.81-.988-4.887-.459-2.33 1.145-3.342 4.519-3.35 6.56" style="fill:#85380d;fill-opacity:1;fill-rule:nonzero;stroke:none;stroke-width:.0352778"/><path d="M45.204 124.496c-.004 1.078.28 2.105.762 2.748.365.488.972 1.126 1.786 1.393.7.231 1.461.119 1.94-.285.477-.403.635-1.14.344-1.61a.62.62 0 0 1 .83-.872c.675.373 1.544.364 2.164-.024.627-.39.985-1.176.851-1.868-.132-.686-.784-1.264-1.453-1.287a.621.621 0 0 1-.137-1.223c.47-.124.851-.613.888-1.137a1.63 1.63 0 0 0-.706-1.422c-2.007-1.346-3.774-.66-4.267-.418-2.058 1.012-2.994 4.12-3.002 6.005zm3.284 5.505c-.372 0-.753-.06-1.124-.182-.888-.291-1.716-.924-2.394-1.83-.647-.864-1.015-2.14-1.01-3.498.008-2.053 1.02-5.8 3.698-7.116.645-.317 2.947-1.217 5.508.501a2.87 2.87 0 0 1 1.254 2.543 2.576 2.576 0 0 1-.593 1.464 2.89 2.89 0 0 1 1.276 1.86c.23 1.196-.351 2.496-1.415 3.159a3.356 3.356 0 0 1-2.261.448 2.65 2.65 0 0 1-.934 1.953c-.542.457-1.257.698-2.005.698" style="fill:#612404;fill-opacity:1;fill-rule:nonzero;stroke:none;stroke-width:.0352778"/><path d="M54.965 118.989c-.874-.187 2.014 6.481 2.602 5.435 8.968-6.287 12.577-13.575 13.99-18.027 2.145-6.748-2.394-13.65-7.067-13.483.93 12.054-4.425 20.701-9.525 26.075" style="fill:#ff8d29;fill-opacity:1;fill-rule:nonzero;stroke:none;stroke-width:.0352778"/><path d="M55.435 119.396c.137.883 1.318 3.61 1.963 4.386 8.96-6.35 12.345-13.726 13.567-17.573 1.283-4.036-.01-7.779-1.647-9.935-1.194-1.571-2.681-2.532-4.161-2.71.702 12.103-4.865 20.708-9.722 25.832zm1.967 5.76a.865.865 0 0 1-.345-.074c-1.132-.494-3.132-5.249-2.829-6.192a.745.745 0 0 1 .42-.473c4.75-5.053 10.141-13.535 9.221-25.455a.622.622 0 0 1 .598-.67c2.104-.088 4.226 1.103 5.841 3.23 2.33 3.068 3.036 7.307 1.843 11.064-1.275 4.011-4.806 11.711-14.144 18.288a.79.79 0 0 1-.605.282" style="fill:#b3470e;fill-opacity:1;fill-rule:nonzero;stroke:none;stroke-width:.0352778"/><path d="M57.838 124.493c.005 1.29-.35 2.409-.886 3.124-.536.715-1.24 1.332-2.09 1.611-.849.28-1.851.175-2.534-.4-.683-.577-.943-1.655-.472-2.414-.855.473-1.966.478-2.795-.04-.83-.517-1.318-1.555-1.133-2.514.186-.96 1.065-1.755 2.042-1.79-.745-.198-1.295-.926-1.35-1.695a2.26 2.26 0 0 1 .98-1.983c1.945-1.304 3.81-.988 4.888-.459 2.33 1.145 3.341 4.519 3.35 6.56" style="fill:#85380d;fill-opacity:1;fill-rule:nonzero;stroke:none;stroke-width:.0352778"/><path d="M51.856 125.792a.62.62 0 0 1 .529.95c-.292.47-.134 1.207.344 1.61s1.239.517 1.94.285c.813-.267 1.42-.905 1.785-1.393.482-.643.767-1.67.762-2.748-.008-1.884-.944-4.993-3.003-6.005-.493-.241-2.258-.929-4.265.417a1.63 1.63 0 0 0-.707 1.423c.037.525.419 1.013.888 1.137a.622.622 0 0 1-.137 1.223c-.67.023-1.32.601-1.453 1.287-.134.692.224 1.478.851 1.868.62.388 1.49.397 2.165.024a.623.623 0 0 1 .3-.078zm2.076 4.209c-.747 0-1.462-.24-2.005-.698a2.65 2.65 0 0 1-.933-1.953 3.34 3.34 0 0 1-2.262-.448c-1.064-.663-1.645-1.962-1.414-3.16a2.888 2.888 0 0 1 1.275-1.86 2.572 2.572 0 0 1-.592-1.463 2.871 2.871 0 0 1 1.254-2.544c2.56-1.717 4.862-.817 5.507-.5 2.678 1.316 3.69 5.063 3.698 7.116.006 1.359-.362 2.634-1.01 3.499-.678.905-1.505 1.538-2.394 1.83a3.604 3.604 0 0 1-1.124.18" style="fill:#612404;fill-opacity:1;fill-rule:nonzero;stroke:none;stroke-width:.0352778"/><path d="M111.868 83.431a21.6 21.6 0 0 1-6.105-.86l-4.411-1.298 3.39-2.73c4.483-3.613 5.616-7.78 5.69-10.904-7.754-7.312-12.01-16.436-12.01-25.793 0-22.93 25-41.587 55.729-41.587s55.73 18.656 55.73 41.587c0 22.929-25.001 41.584-55.73 41.584-9.15 0-18.174-1.687-26.219-4.89-3.03 1.824-9.156 4.891-16.064 4.891zm15.402-10.553 1.627.7c7.647 3.29 16.38 5.03 25.254 5.03 27.604 0 50.063-16.492 50.063-36.762 0-20.273-22.459-36.765-50.063-36.765-27.605 0-50.062 16.492-50.062 36.765 0 8.425 3.987 16.662 11.229 23.19l.737.665.034.912c.123 3.279-.568 7.723-3.993 11.995 6.56-.089 12.596-3.975 13.75-4.761z"/>

  <text textanchor="middle" x="128" y="46" font-size="10px">Hello world</text>

</svg>